<svg width="19" height="15" viewBox="0 0 19 15" fill="none" xmlns="http://www.w3.org/2000/svg">
<path d="M0.343725 8.35627L0.344782 8.35742L6.46806 14.6477C6.92679 15.119 7.66876 15.1172 8.12538 14.6436C8.58195 14.1701 8.58019 13.4042 8.12146 12.9329L4.01029 8.70968L18 8.53227C18.6472 8.53227 19 8.16811 19 7.5C19 6.8319 18.6472 6.29032 18 6.29032L4.01035 6.29032L8.1214 2.06709C8.58013 1.5958 8.58189 0.829896 8.12533 0.356367C7.6687 -0.117283 6.92667 -0.118915 6.468 0.352255L0.344723 6.64258L0.343666 6.64373C-0.115299 7.11659 -0.113832 7.88498 0.343725 8.35627Z" fill="#253342"/>
</svg>
