<svg width="12" height="12" viewBox="0 0 12 12" fill="none" xmlns="http://www.w3.org/2000/svg">
<path d="M6.27411 10.0553C6.10576 9.9453 5.89423 9.9453 5.72589 10.0553L2.87786 11.9157C2.47372 12.1797 1.97508 11.7829 2.09382 11.2917L2.90181 7.94994C2.95359 7.7358 2.88396 7.50896 2.72368 7.36962L0.195765 5.17202C-0.176362 4.84852 0.0148976 4.20362 0.492969 4.1699L3.81083 3.93582C4.011 3.9217 4.18631 3.78693 4.263 3.58822L5.51324 0.348822C5.69274 -0.116273 6.30726 -0.116274 6.48676 0.348821L7.737 3.58822C7.81369 3.78693 7.989 3.9217 8.18917 3.93582L11.507 4.1699C11.9851 4.20362 12.1764 4.84852 11.8042 5.17202L9.27632 7.36962C9.11604 7.50896 9.04641 7.7358 9.09819 7.94994L9.90618 11.2917C10.0249 11.7829 9.52628 12.1797 9.12214 11.9157L6.27411 10.0553Z" fill="#EA9C46"/>
</svg>
