<svg width="50" height="45" viewBox="0 0 50 45" fill="none" xmlns="http://www.w3.org/2000/svg">
<path d="M12.6849 0L10.8286 16.2C10.3224 18.7312 7.95986 20.5875 5.42861 20.25C2.39111 20.25 -0.308894 18.3937 0.028606 16.2C0.366106 14.0062 4.58486 0 4.58486 0H12.6849Z" fill="#CBD6E2"/>
<path d="M23.991 0V16.2C23.991 18.5625 21.6285 20.25 18.591 20.25C15.5535 20.25 13.191 18.3937 13.191 16.2C13.3598 13.3312 14.541 0 14.541 0H23.991Z" fill="#CBD6E2"/>
<path d="M25.6786 0V16.2C25.6786 18.5625 28.0411 20.25 31.0786 20.25C34.1161 20.25 36.4786 18.3937 36.4786 16.2L35.1286 0H25.6786Z" fill="#CBD6E2"/>
<path d="M36.6473 0L38.3348 16.2C38.3348 18.5625 40.6973 20.25 43.7348 20.25C46.7723 20.25 49.1348 18.3937 49.1348 16.2L44.7473 0H36.6473Z" fill="#CBD6E2"/>
<path d="M41.0347 22.6125C39.1785 22.275 37.6597 20.925 36.9847 19.2375C36.9847 19.0687 36.816 19.0687 36.6472 19.0687C36.6472 19.0687 36.6472 19.0687 36.4785 19.2375C35.6347 21.4312 33.441 22.7812 31.2472 22.7812C28.3785 22.7812 25.5097 21.2625 24.8347 19.2375C24.8347 19.0687 24.4972 18.9 24.3285 19.2375C23.316 21.4312 20.9535 22.7812 18.591 22.7812C16.0597 22.95 13.6972 21.6 12.3472 19.2375C12.3472 19.0687 12.0097 19.0687 12.0097 19.2375C10.491 21.6 9.64722 22.7812 6.60972 22.7812C5.93472 22.7812 5.25972 22.7812 4.58472 22.4437V44.55H43.2285V22.6125C42.5535 22.7812 41.8785 22.7812 41.0347 22.6125ZM24.4972 28.35C24.4972 27.675 25.0035 27.1687 25.6785 27.1687H37.8285C38.5035 27.1687 39.0097 27.675 39.0097 28.35V35.4375C39.0097 36.1125 38.5035 36.6187 37.8285 36.6187H25.6785C25.0035 36.6187 24.4972 36.1125 24.4972 35.4375V28.35ZM9.64722 30.375C9.64722 29.7 10.1535 29.1937 10.8285 29.1937H17.241C17.916 29.1937 18.4222 29.7 18.4222 30.375V43.2H9.64722V30.375Z" fill="#CBD6E2"/>
</svg>
