<svg width="19" height="19" viewBox="0 0 19 19" fill="none" xmlns="http://www.w3.org/2000/svg">
<path fill-rule="evenodd" clip-rule="evenodd" d="M5.7224 4.68205C5.43509 4.39475 4.96927 4.39474 4.68196 4.68205C4.39465 4.96936 4.39465 5.43518 4.68196 5.72249L8.3235 9.36404L4.68198 13.0056C4.39467 13.2929 4.39467 13.7587 4.68198 14.046C4.96929 14.3333 5.43511 14.3333 5.72242 14.046L9.36394 10.4045L13.0055 14.046C13.2928 14.3333 13.7586 14.3333 14.0459 14.046C14.3332 13.7587 14.3332 13.2929 14.0459 13.0056L10.4044 9.36404L14.0459 5.72248C14.3332 5.43517 14.3332 4.96935 14.0459 4.68204C13.7586 4.39473 13.2928 4.39473 13.0055 4.68204L9.36394 8.3236L5.7224 4.68205Z" fill="#99ACC2"/>
</svg>
