<svg width="14" height="18" viewBox="0 0 14 18" fill="none" xmlns="http://www.w3.org/2000/svg">
<path d="M6.80276 0.2276C10.5598 0.2276 13.6055 3.2733 13.6055 7.03036C13.6055 8.90324 13.0842 10.5543 11.9854 12.2445C11.0128 13.7406 9.59903 15.2783 7.31005 17.4074C7.02153 17.6758 6.5739 17.673 6.28873 17.4011C3.92267 15.1448 2.55781 13.6528 1.60415 12.1941C0.510418 10.5211 0 8.90371 0 7.03036C0 3.2733 3.0457 0.2276 6.80276 0.2276ZM6.80276 1.71726C3.86841 1.71726 1.48966 4.09601 1.48966 7.03036C1.48966 9.87377 2.73649 11.8914 6.80869 15.8349C10.7718 12.078 12.1159 9.89506 12.1159 7.03036C12.1159 4.09601 9.7371 1.71726 6.80276 1.71726ZM6.80276 3.95174C8.44819 3.95174 9.78207 5.28562 9.78207 6.93105C9.78207 8.57648 8.44819 9.91036 6.80276 9.91036C5.15733 9.91036 3.82345 8.57648 3.82345 6.93105C3.82345 5.28562 5.15733 3.95174 6.80276 3.95174ZM6.80276 4.94484C5.70581 4.94484 4.81655 5.8341 4.81655 6.93105C4.81655 8.028 5.70581 8.91726 6.80276 8.91726C7.89971 8.91726 8.78897 8.028 8.78897 6.93105C8.78897 5.8341 7.89971 4.94484 6.80276 4.94484Z" fill="#516F90"/>
</svg>
