<svg width="17" height="18" viewBox="0 0 17 18" fill="none" xmlns="http://www.w3.org/2000/svg">
<path d="M11.7478 11.5371L16.411 16.0656C16.7082 16.3542 16.7151 16.829 16.4266 17.1262C16.138 17.4233 15.6632 17.4303 15.366 17.1417L10.6191 12.5318C9.52347 13.2995 8.18935 13.75 6.75 13.75C3.02208 13.75 0 10.7279 0 7C0 3.27208 3.02208 0.25 6.75 0.25C10.4779 0.25 13.5 3.27208 13.5 7C13.5 8.74674 12.8365 10.3385 11.7478 11.5371ZM10.3232 10.8464C11.3547 9.88777 12 8.51925 12 7C12 4.10051 9.6495 1.75 6.75 1.75C3.85051 1.75 1.5 4.10051 1.5 7C1.5 9.8995 3.85051 12.25 6.75 12.25C7.99343 12.25 9.1359 11.8177 10.0353 11.0953C10.0589 11.061 10.0857 11.0283 10.1156 10.9974C10.1775 10.9337 10.2478 10.8834 10.3232 10.8464Z" fill="#516F90"/>
</svg>
