<svg width="16" height="10" viewBox="0 0 16 10" fill="none" xmlns="http://www.w3.org/2000/svg">
<path d="M6.15741 9.73856C6.15741 9.88295 6.28096 10 6.43337 10H9.39996C9.55237 10 9.67593 9.88295 9.67593 9.73856V8.59477C9.67593 8.45038 9.55237 8.33333 9.39996 8.33333H6.43337C6.28096 8.33333 6.15741 8.45038 6.15741 8.59477V9.73856ZM0.275962 0C0.123552 0 0 0.11705 0 0.261438V1.40523C0 1.54962 0.123553 1.66667 0.275962 1.66667H15.5574C15.7098 1.66667 15.8333 1.54962 15.8333 1.40523V0.261438C15.8333 0.11705 15.7098 0 15.5574 0H0.275962ZM2.63889 5.5719C2.63889 5.71628 2.76244 5.83333 2.91485 5.83333H12.9185C13.0709 5.83333 13.1944 5.71628 13.1944 5.5719V4.4281C13.1944 4.28372 13.0709 4.16667 12.9185 4.16667H2.91485C2.76244 4.16667 2.63889 4.28372 2.63889 4.4281V5.5719Z" fill="#516F90"/>
</svg>
