<svg width="22" height="20" viewBox="0 0 22 20" fill="none" xmlns="http://www.w3.org/2000/svg">
<path d="M11 19.573C10.6868 19.573 10.3848 19.4595 10.1495 19.2534C9.26077 18.4763 8.40392 17.746 7.64793 17.1018L7.64407 17.0984C5.42766 15.2096 3.5137 13.5785 2.18201 11.9717C0.693375 10.1754 0 8.47225 0 6.61166C0 4.80395 0.619858 3.13622 1.74527 1.91547C2.88411 0.680284 4.44676 0 6.14587 0C7.4158 0 8.57881 0.40149 9.60251 1.19322C10.1191 1.59287 10.5874 2.08197 11 2.65249C11.4127 2.08197 11.8809 1.59287 12.3977 1.19322C13.4214 0.40149 14.5844 0 15.8543 0C17.5532 0 19.1161 0.680284 20.2549 1.91547C21.3803 3.13622 22 4.80395 22 6.61166C22 8.47225 21.3068 10.1754 19.8182 11.9715C18.4865 13.5785 16.5727 15.2095 14.3566 17.0981C13.5993 17.7433 12.7411 18.4748 11.8503 19.2537C11.6152 19.4595 11.313 19.573 11 19.573ZM6.14587 1.28873C4.81099 1.28873 3.5847 1.82148 2.6926 2.78895C1.78723 3.77102 1.28856 5.12857 1.28856 6.61166C1.28856 8.1765 1.87015 9.57601 3.17415 11.1494C4.43451 12.6703 6.30919 14.2678 8.47978 16.1177L8.48381 16.121C9.24265 16.7677 10.1029 17.5009 10.9982 18.2837C11.8988 17.4994 12.7604 16.7651 13.5207 16.1173C15.6911 14.2675 17.5657 12.6703 18.826 11.1494C20.1299 9.57601 20.7114 8.1765 20.7114 6.61166C20.7114 5.12857 20.2128 3.77102 19.3074 2.78895C18.4155 1.82148 17.189 1.28873 15.8543 1.28873C14.8764 1.28873 13.9786 1.59958 13.1859 2.21256C12.4794 2.75907 11.9873 3.44993 11.6987 3.93333C11.5504 4.18191 11.2892 4.33028 11 4.33028C10.7108 4.33028 10.4496 4.18191 10.3013 3.93333C10.0129 3.44993 9.52077 2.75907 8.81413 2.21256C8.02139 1.59958 7.12358 1.28873 6.14587 1.28873Z" fill="#253342"/>
</svg>
