<svg width="21" height="16" viewBox="0 0 21 16" fill="none" xmlns="http://www.w3.org/2000/svg">
<path fill-rule="evenodd" clip-rule="evenodd" d="M20.0156 13.3333C20.5593 13.3333 21 13.781 21 14.3333C21 14.8856 20.5593 15.3333 20.0156 15.3333H0.984375C0.44072 15.3333 0 14.8856 0 14.3333C0 13.781 0.44072 13.3333 0.984375 13.3333H20.0156ZM20.0156 6.66667C20.5593 6.66667 21 7.11438 21 7.66667C21 8.21895 20.5593 8.66667 20.0156 8.66667H0.984375C0.44072 8.66667 0 8.21895 0 7.66667C0 7.11438 0.44072 6.66667 0.984375 6.66667H20.0156ZM20.0156 0C20.5593 0 21 0.447715 21 1C21 1.55228 20.5593 2 20.0156 2H0.984375C0.44072 2 0 1.55228 0 1C0 0.447715 0.44072 0 0.984375 0H20.0156Z" fill="#33475B"/>
</svg>
