<svg width="17" height="17" viewBox="0 0 17 17" fill="none" xmlns="http://www.w3.org/2000/svg">
<rect x="0.5" y="1.5" width="16" height="15" rx="1.5" stroke="#00A3AD"/>
<rect x="5.25" y="0.25" width="0.5" height="3" rx="0.25" stroke="#00A3AD" stroke-width="0.5"/>
<rect x="11.25" y="0.25" width="0.5" height="3" rx="0.25" stroke="#00A3AD" stroke-width="0.5"/>
<mask id="path-4-inside-1" fill="white">
<rect x="3" y="7" width="1" height="3" rx="0.4" transform="rotate(-90 3 7)"/>
</mask>
<rect x="3" y="7" width="1" height="3" rx="0.4" transform="rotate(-90 3 7)" stroke="#00A3AD" mask="url(#path-4-inside-1)"/>
<mask id="path-5-inside-2" fill="white">
<rect x="7" y="7" width="1" height="3" rx="0.4" transform="rotate(-90 7 7)"/>
</mask>
<rect x="7" y="7" width="1" height="3" rx="0.4" transform="rotate(-90 7 7)" stroke="#00A3AD" mask="url(#path-5-inside-2)"/>
<mask id="path-6-inside-3" fill="white">
<rect x="11" y="7" width="1" height="3" rx="0.4" transform="rotate(-90 11 7)"/>
</mask>
<rect x="11" y="7" width="1" height="3" rx="0.4" transform="rotate(-90 11 7)" stroke="#00A3AD" mask="url(#path-6-inside-3)"/>
<mask id="path-7-inside-4" fill="white">
<rect x="3" y="10" width="1" height="3" rx="0.4" transform="rotate(-90 3 10)"/>
</mask>
<rect x="3" y="10" width="1" height="3" rx="0.4" transform="rotate(-90 3 10)" stroke="#00A3AD" mask="url(#path-7-inside-4)"/>
<mask id="path-8-inside-5" fill="white">
<rect x="7" y="10" width="1" height="3" rx="0.4" transform="rotate(-90 7 10)"/>
</mask>
<rect x="7" y="10" width="1" height="3" rx="0.4" transform="rotate(-90 7 10)" stroke="#00A3AD" mask="url(#path-8-inside-5)"/>
<mask id="path-9-inside-6" fill="white">
<rect x="11" y="10" width="1" height="3" rx="0.4" transform="rotate(-90 11 10)"/>
</mask>
<rect x="11" y="10" width="1" height="3" rx="0.4" transform="rotate(-90 11 10)" stroke="#00A3AD" mask="url(#path-9-inside-6)"/>
<mask id="path-10-inside-7" fill="white">
<rect x="3" y="13" width="1" height="3" rx="0.4" transform="rotate(-90 3 13)"/>
</mask>
<rect x="3" y="13" width="1" height="3" rx="0.4" transform="rotate(-90 3 13)" stroke="#00A3AD" mask="url(#path-10-inside-7)"/>
<mask id="path-11-inside-8" fill="white">
<rect x="7" y="13" width="1" height="3" rx="0.4" transform="rotate(-90 7 13)"/>
</mask>
<rect x="7" y="13" width="1" height="3" rx="0.4" transform="rotate(-90 7 13)" stroke="#00A3AD" mask="url(#path-11-inside-8)"/>
</svg>
