<svg width="95" height="22" viewBox="0 0 95 22" fill="none" xmlns="http://www.w3.org/2000/svg">
<path d="M8.19889 16.874C7.61586 16.874 7.10571 16.7493 6.66843 16.5C6.24573 16.2653 6.03439 15.8473 6.03439 15.246C6.03439 14.8647 6.12913 14.4393 6.31861 13.97C6.58098 14.2633 6.82148 14.4687 7.04012 14.586C7.27333 14.7033 7.52112 14.762 7.78348 14.762C8.51227 14.762 9.05158 14.3513 9.4014 13.53C9.76579 12.7087 9.94799 11.7993 9.94799 10.802C9.94799 8.93933 9.25564 8.008 7.87094 8.008C7.47739 8.008 7.14215 8.03 6.86521 8.074L5.07238 16.5H1.92401L4.89747 2.508L8.1333 2.068L7.10571 6.952H7.23689C7.79077 6.952 8.30821 6.776 8.78921 6.424C9.27021 6.05733 9.65647 5.60267 9.94799 5.06C10.2395 4.50267 10.3853 3.94533 10.3853 3.388C10.3853 2.71333 10.1448 2.14867 9.66376 1.694C9.19734 1.23933 8.47583 1.012 7.49925 1.012C6.61013 1.012 5.74287 1.21733 4.89747 1.628C4.05207 2.024 3.35972 2.62533 2.82042 3.432C2.29569 4.23867 2.03333 5.214 2.03333 6.358C2.03333 6.90067 2.08434 7.282 2.18637 7.502C2.2884 7.70733 2.33942 7.82467 2.33942 7.854C1.5669 7.854 0.983867 7.7 0.59032 7.392C0.196773 7.06933 0 6.54867 0 5.83C0 4.83267 0.371683 3.88667 1.11505 2.992C1.85842 2.09733 2.84228 1.37867 4.06665 0.836001C5.29102 0.278667 6.58098 0 7.93653 0C8.95683 0 9.81681 0.161334 10.5164 0.484001C11.2161 0.806668 11.7335 1.232 12.0688 1.76C12.4186 2.288 12.5935 2.86733 12.5935 3.498C12.5935 4.17267 12.404 4.82533 12.025 5.456C11.6461 6.08667 11.1068 6.6 10.4071 6.996C11.2817 7.15733 11.9303 7.568 12.353 8.228C12.7757 8.87333 12.987 9.64333 12.987 10.538C12.987 11.374 12.8267 12.2833 12.506 13.266C12.2 14.2487 11.6825 15.0993 10.9537 15.818C10.2395 16.522 9.32123 16.874 8.19889 16.874Z" fill="#00A3AD"/>
<path d="M16.9362 16.588C15.8576 16.588 15.0049 16.3093 14.3781 15.752C13.7514 15.1947 13.438 14.3147 13.438 13.112C13.438 12.1147 13.642 11.0073 14.0502 9.79C14.4583 8.57267 15.1142 7.524 16.0179 6.644C16.9216 5.74933 18.0585 5.302 19.4286 5.302C21.2943 5.302 22.2272 6.47533 22.2272 8.822V8.844C22.2709 8.85867 22.3511 8.866 22.4677 8.866C22.9487 8.866 23.5026 8.74133 24.1293 8.492C24.7561 8.228 25.3246 7.91267 25.8347 7.546L26.0315 8.14C25.6088 8.59467 25.0549 8.98333 24.3698 9.306C23.6994 9.614 22.9633 9.834 22.1616 9.966C22.045 11.3007 21.7462 12.4667 21.2652 13.464C20.7842 14.4613 20.1647 15.2313 19.4068 15.774C18.6488 16.3167 17.8253 16.588 16.9362 16.588ZM17.8107 14.608C18.1605 14.608 18.5104 14.41 18.8602 14.014C19.21 13.6033 19.5161 13.0533 19.7785 12.364C20.0408 11.66 20.2303 10.8827 20.3469 10.032C19.9534 9.944 19.7566 9.636 19.7566 9.108C19.7566 8.50667 19.9825 8.11067 20.4344 7.92C20.4052 7.436 20.3323 7.106 20.2157 6.93C20.0991 6.73933 19.8951 6.644 19.6035 6.644C19.1225 6.644 18.6561 6.996 18.2043 7.7C17.7524 8.404 17.388 9.24733 17.1111 10.23C16.8341 11.2127 16.6957 12.078 16.6957 12.826C16.6957 13.53 16.7758 14.0067 16.9362 14.256C17.0965 14.4907 17.388 14.608 17.8107 14.608Z" fill="#00A3AD"/>
<path d="M26.5443 16.588C25.4656 16.588 24.613 16.3093 23.9862 15.752C23.3594 15.1947 23.0461 14.3147 23.0461 13.112C23.0461 12.1147 23.2501 11.0073 23.6582 9.79C24.0664 8.57267 24.7223 7.524 25.626 6.644C26.5297 5.74933 27.6666 5.302 29.0367 5.302C30.9024 5.302 31.8353 6.47533 31.8353 8.822V8.844C31.879 8.85867 31.9592 8.866 32.0758 8.866C32.5568 8.866 33.1107 8.74133 33.7374 8.492C34.3642 8.228 34.9326 7.91267 35.4428 7.546L35.6396 8.14C35.2169 8.59467 34.663 8.98333 33.9779 9.306C33.3074 9.614 32.5714 9.834 31.7697 9.966C31.6531 11.3007 31.3543 12.4667 30.8733 13.464C30.3923 14.4613 29.7728 15.2313 29.0149 15.774C28.2569 16.3167 27.4334 16.588 26.5443 16.588ZM27.4188 14.608C27.7686 14.608 28.1184 14.41 28.4683 14.014C28.8181 13.6033 29.1242 13.0533 29.3865 12.364C29.6489 11.66 29.8384 10.8827 29.955 10.032C29.5614 9.944 29.3647 9.636 29.3647 9.108C29.3647 8.50667 29.5906 8.11067 30.0424 7.92C30.0133 7.436 29.9404 7.106 29.8238 6.93C29.7072 6.73933 29.5031 6.644 29.2116 6.644C28.7306 6.644 28.2642 6.996 27.8123 7.7C27.3605 8.404 26.9961 9.24733 26.7192 10.23C26.4422 11.2127 26.3038 12.078 26.3038 12.826C26.3038 13.53 26.3839 14.0067 26.5443 14.256C26.7046 14.4907 26.9961 14.608 27.4188 14.608Z" fill="#00A3AD"/>
<path d="M41.181 16.632C40.2773 16.632 39.5922 16.4193 39.1258 15.994C38.6594 15.554 38.4262 14.9307 38.4262 14.124C38.4262 13.772 38.4699 13.3907 38.5573 12.98L38.7323 12.122C38.7906 11.8727 38.8197 11.6013 38.8197 11.308C38.8197 10.604 38.5573 10.252 38.0326 10.252C37.7994 10.252 37.5516 10.318 37.2892 10.45C37.0415 10.582 36.7499 10.7873 36.4147 11.066L35.2778 16.5H32.1294L35.2996 1.54L38.5355 1.1L36.8957 8.844L41.1154 5.5H43.2799L38.9072 8.558C39.1258 8.49933 39.3663 8.47 39.6287 8.47C40.4158 8.47 41.0134 8.712 41.4215 9.196C41.8296 9.68 42.0337 10.296 42.0337 11.044C42.0337 11.352 42.0045 11.6307 41.9462 11.88L41.7057 12.98C41.6328 13.244 41.5964 13.4787 41.5964 13.684C41.5964 14.2267 41.8806 14.498 42.4491 14.498C42.8864 14.498 43.2362 14.344 43.4985 14.036C43.7609 13.7133 44.0233 13.222 44.2856 12.562H45.2039C44.3002 15.2753 42.9592 16.632 41.181 16.632Z" fill="#00A3AD"/>
<path d="M47.6871 22C46.9875 22 46.4045 21.8167 45.938 21.45C45.4716 21.0833 45.2384 20.5553 45.2384 19.866C45.2384 19.03 45.5737 18.3553 46.2441 17.842C46.9146 17.3433 47.7673 16.9253 48.8022 16.588L49.0646 15.4C48.6419 15.8693 48.2119 16.192 47.7746 16.368C47.3373 16.544 46.8928 16.632 46.4409 16.632C45.7413 16.632 45.1728 16.412 44.7355 15.972C44.3128 15.532 44.1015 14.872 44.1015 13.992C44.1015 13.6253 44.1598 13.1487 44.2764 12.562L45.7631 5.5H48.9115L47.3373 12.98C47.2936 13.156 47.2717 13.3393 47.2717 13.53C47.2717 14.1753 47.4904 14.498 47.9276 14.498C48.3066 14.498 48.6419 14.3367 48.9334 14.014C49.2249 13.6767 49.4581 13.2367 49.633 12.694L51.1635 5.5H54.3119L52.1473 15.708C52.847 15.4733 53.4082 15.1213 53.8308 14.652C54.2535 14.1827 54.6107 13.486 54.9022 12.562H55.8204C55.4269 13.8673 54.8949 14.828 54.2244 15.444C53.5539 16.0453 52.796 16.456 51.9506 16.676L51.6226 18.26C51.3311 19.6827 50.8282 20.658 50.114 21.186C49.3998 21.7287 48.5908 22 47.6871 22ZM47.1843 20.284C47.4321 20.284 47.6726 20.1153 47.9058 19.778C48.139 19.4407 48.3212 18.9567 48.4524 18.326L48.5836 17.688C47.1551 18.216 46.4409 18.8393 46.4409 19.558C46.4409 19.7487 46.5065 19.9173 46.6377 20.064C46.7689 20.2107 46.9511 20.284 47.1843 20.284Z" fill="#00A3AD"/>
<path d="M57.8172 16.632C56.8261 16.632 56.0681 16.39 55.5434 15.906C55.0187 15.4073 54.7563 14.7107 54.7563 13.816C54.7563 13.376 54.8073 12.958 54.9093 12.562L57.2488 1.54L60.4846 1.1L59.4351 6.05C59.8433 5.80067 60.1785 5.63933 60.4409 5.566C60.7032 5.478 60.9656 5.434 61.228 5.434C62.9479 5.434 63.8079 6.688 63.8079 9.196C63.8079 10.208 63.6111 11.2933 63.2176 12.452C62.8386 13.596 62.1973 14.5787 61.2935 15.4C60.4044 16.2213 59.2456 16.632 57.8172 16.632ZM59.0416 14.498C59.4934 14.498 59.9161 14.2193 60.3097 13.662C60.7032 13.09 61.0166 12.386 61.2498 11.55C61.483 10.6993 61.5996 9.88533 61.5996 9.108C61.5996 8.52133 61.4976 8.02267 61.2935 7.612C61.0895 7.20133 60.8053 6.996 60.4409 6.996C60.2222 6.996 59.9744 7.03267 59.6975 7.106C59.4351 7.16467 59.2529 7.26 59.1509 7.392L57.9484 12.98C57.9047 13.156 57.8828 13.3247 57.8828 13.486C57.8828 14.1607 58.2691 14.498 59.0416 14.498Z" fill="#00A3AD"/>
<path d="M67.8163 16.588C66.7377 16.588 65.885 16.3093 65.2582 15.752C64.6315 15.1947 64.3181 14.3147 64.3181 13.112C64.3181 12.1147 64.5221 11.0073 64.9303 9.79C65.3384 8.57267 65.9943 7.524 66.898 6.644C67.8017 5.74933 68.9386 5.302 70.3087 5.302C72.1744 5.302 73.1073 6.47533 73.1073 8.822V8.844C73.151 8.85867 73.2312 8.866 73.3478 8.866C73.8288 8.866 74.3827 8.74133 75.0094 8.492C75.6362 8.228 76.2047 7.91267 76.7148 7.546L76.9116 8.14C76.4889 8.59467 75.935 8.98333 75.2499 9.306C74.5795 9.614 73.8434 9.834 73.0417 9.966C72.9251 11.3007 72.6263 12.4667 72.1453 13.464C71.6643 14.4613 71.0448 15.2313 70.2869 15.774C69.5289 16.3167 68.7054 16.588 67.8163 16.588ZM68.6908 14.608C69.0406 14.608 69.3905 14.41 69.7403 14.014C70.0901 13.6033 70.3962 13.0533 70.6586 12.364C70.9209 11.66 71.1104 10.8827 71.227 10.032C70.8335 9.944 70.6367 9.636 70.6367 9.108C70.6367 8.50667 70.8626 8.11067 71.3145 7.92C71.2853 7.436 71.2124 7.106 71.0958 6.93C70.9792 6.73933 70.7752 6.644 70.4837 6.644C70.0027 6.644 69.5362 6.996 69.0844 7.7C68.6325 8.404 68.2681 9.24733 67.9912 10.23C67.7142 11.2127 67.5758 12.078 67.5758 12.826C67.5758 13.53 67.6559 14.0067 67.8163 14.256C67.9766 14.4907 68.2681 14.608 68.6908 14.608Z" fill="#00A3AD"/>
<path d="M77.4244 16.588C76.3457 16.588 75.4931 16.3093 74.8663 15.752C74.2395 15.1947 73.9262 14.3147 73.9262 13.112C73.9262 12.1147 74.1302 11.0073 74.5383 9.79C74.9465 8.57267 75.6024 7.524 76.5061 6.644C77.4098 5.74933 78.5467 5.302 79.9168 5.302C81.7825 5.302 82.7154 6.47533 82.7154 8.822V8.844C82.7591 8.85867 82.8393 8.866 82.9559 8.866C83.4369 8.866 83.9908 8.74133 84.6175 8.492C85.2443 8.228 85.8127 7.91267 86.3229 7.546L86.5197 8.14C86.097 8.59467 85.5431 8.98333 84.858 9.306C84.1875 9.614 83.4515 9.834 82.6498 9.966C82.5332 11.3007 82.2344 12.4667 81.7534 13.464C81.2724 14.4613 80.6529 15.2313 79.895 15.774C79.137 16.3167 78.3135 16.588 77.4244 16.588ZM78.2989 14.608C78.6487 14.608 78.9985 14.41 79.3484 14.014C79.6982 13.6033 80.0043 13.0533 80.2666 12.364C80.529 11.66 80.7185 10.8827 80.8351 10.032C80.4416 9.944 80.2448 9.636 80.2448 9.108C80.2448 8.50667 80.4707 8.11067 80.9226 7.92C80.8934 7.436 80.8205 7.106 80.7039 6.93C80.5873 6.73933 80.3832 6.644 80.0917 6.644C79.6107 6.644 79.1443 6.996 78.6925 7.7C78.2406 8.404 77.8762 9.24733 77.5993 10.23C77.3223 11.2127 77.1839 12.078 77.1839 12.826C77.1839 13.53 77.264 14.0067 77.4244 14.256C77.5847 14.4907 77.8762 14.608 78.2989 14.608Z" fill="#00A3AD"/>
<path d="M92.0611 16.632C91.1574 16.632 90.4723 16.4193 90.0059 15.994C89.5395 15.554 89.3063 14.9307 89.3063 14.124C89.3063 13.772 89.35 13.3907 89.4374 12.98L89.6124 12.122C89.6707 11.8727 89.6998 11.6013 89.6998 11.308C89.6998 10.604 89.4374 10.252 88.9127 10.252C88.6795 10.252 88.4317 10.318 88.1693 10.45C87.9216 10.582 87.63 10.7873 87.2948 11.066L86.1579 16.5H83.0095L86.1797 1.54L89.4156 1.1L87.7758 8.844L91.9955 5.5H94.16L89.7873 8.558C90.0059 8.49933 90.2464 8.47 90.5088 8.47C91.2959 8.47 91.8935 8.712 92.3016 9.196C92.7097 9.68 92.9138 10.296 92.9138 11.044C92.9138 11.352 92.8846 11.6307 92.8263 11.88L92.5858 12.98C92.5129 13.244 92.4765 13.4787 92.4765 13.684C92.4765 14.2267 92.7607 14.498 93.3292 14.498C93.6498 14.498 93.8539 14.476 93.9414 14.432C94.0288 14.388 94.0798 14.366 94.0944 14.366C94.0653 14.85 93.9268 15.2607 93.679 15.598C93.4458 15.9353 93.1688 16.192 92.8482 16.368C92.5421 16.544 92.2797 16.632 92.0611 16.632Z" fill="#00A3AD"/>
</svg>
