<svg width="17" height="17" viewBox="0 0 17 17" fill="none" xmlns="http://www.w3.org/2000/svg">
<path d="M8.37886 8.18896C9.50388 8.18896 10.4779 7.78547 11.274 6.98937C12.0699 6.19341 12.4735 5.2195 12.4735 4.09435C12.4735 2.9696 12.07 1.99556 11.2739 1.19933C10.4778 0.403495 9.50375 0 8.37886 0C7.25372 0 6.2798 0.403495 5.48383 1.19946C4.68787 1.99543 4.28424 2.96947 4.28424 4.09435C4.28424 5.2195 4.68787 6.19354 5.48383 6.9895C6.28006 7.78534 7.2541 8.18896 8.37886 8.18896ZM6.18836 1.90386C6.79912 1.2931 7.51558 0.996222 8.37886 0.996222C9.24201 0.996222 9.9586 1.2931 10.5695 1.90386C11.1802 2.51474 11.4773 3.23133 11.4773 4.09435C11.4773 4.95763 11.1802 5.67409 10.5695 6.28498C9.9586 6.89586 9.24201 7.19274 8.37886 7.19274C7.51584 7.19274 6.79938 6.89573 6.18836 6.28498C5.57748 5.67422 5.28046 4.95763 5.28046 4.09435C5.28046 3.23133 5.57748 2.51474 6.18836 1.90386Z" fill="#33475B"/>
<path d="M15.5433 13.0722C15.5204 12.7409 15.474 12.3796 15.4056 11.998C15.3366 11.6136 15.2478 11.2501 15.1414 10.918C15.0314 10.5747 14.8821 10.2356 14.6973 9.91073C14.5057 9.57351 14.2806 9.27987 14.0279 9.03824C13.7637 8.78546 13.4403 8.58222 13.0662 8.43397C12.6935 8.28651 12.2804 8.2118 11.8385 8.2118C11.6649 8.2118 11.4971 8.283 11.173 8.49403C10.9735 8.62411 10.7402 8.77457 10.4797 8.94097C10.257 9.08286 9.95536 9.2158 9.58273 9.33616C9.21918 9.4538 8.85006 9.51346 8.4856 9.51346C8.12141 9.51346 7.75228 9.4538 7.38847 9.33616C7.01624 9.21593 6.71442 9.08299 6.49212 8.9411C6.23415 8.77625 6.00069 8.6258 5.79823 8.4939C5.47437 8.28287 5.30653 8.21167 5.133 8.21167C4.69098 8.21167 4.27802 8.28651 3.90539 8.4341C3.53159 8.58209 3.20799 8.78533 2.94353 9.03837C2.69088 9.28013 2.46572 9.57364 2.27428 9.91073C2.08972 10.2356 1.94031 10.5745 1.83032 10.9181C1.7241 11.2503 1.63525 11.6136 1.56625 11.998C1.49777 12.379 1.45147 12.7405 1.42851 13.0725C1.40594 13.3972 1.39453 13.7351 1.39453 14.0764C1.39453 14.9638 1.67663 15.6822 2.23291 16.2121C2.78232 16.7349 3.50916 17 4.39332 17H12.5789C13.4628 17 14.1897 16.7349 14.7392 16.2121C15.2956 15.6826 15.5777 14.964 15.5777 14.0763C15.5776 13.7338 15.566 13.3959 15.5433 13.0722ZM14.0523 15.4903C13.6893 15.8358 13.2073 16.0038 12.5788 16.0038H4.39332C3.76466 16.0038 3.2827 15.8358 2.9198 15.4904C2.56377 15.1515 2.39075 14.6889 2.39075 14.0764C2.39075 13.7579 2.40126 13.4434 2.42227 13.1414C2.44276 12.8452 2.48466 12.5198 2.54678 12.174C2.60813 11.8325 2.68621 11.512 2.77908 11.2219C2.86818 10.9437 2.98971 10.6682 3.14042 10.4028C3.28426 10.1499 3.44975 9.93291 3.63237 9.75808C3.80318 9.59453 4.01849 9.46068 4.27218 9.36029C4.50681 9.26742 4.77048 9.21658 5.05673 9.20893C5.09162 9.22748 5.15375 9.26288 5.25439 9.32851C5.45919 9.46197 5.69524 9.61424 5.9562 9.7809C6.25036 9.96845 6.62934 10.1378 7.08212 10.284C7.54502 10.4337 8.01713 10.5097 8.48573 10.5097C8.95434 10.5097 9.42657 10.4337 9.88921 10.2841C10.3424 10.1377 10.7212 9.96845 11.0158 9.78064C11.2828 9.60996 11.5123 9.4621 11.7171 9.32851C11.8177 9.26301 11.8798 9.22748 11.9147 9.20893C12.2011 9.21658 12.4648 9.26742 12.6995 9.36029C12.9531 9.46068 13.1684 9.59466 13.3392 9.75808C13.5218 9.93278 13.6873 10.1498 13.8312 10.4029C13.982 10.6682 14.1037 10.9438 14.1926 11.2217C14.2856 11.5123 14.3639 11.8326 14.4251 12.1739C14.4871 12.5203 14.5291 12.8458 14.5496 13.1415V13.1418C14.5707 13.4426 14.5814 13.757 14.5815 14.0764C14.5814 14.689 14.4083 15.1515 14.0523 15.4903Z" fill="#33475B"/>
</svg>
