<svg width="147" height="35" viewBox="0 0 147 35" fill="none" xmlns="http://www.w3.org/2000/svg">
<path d="M12.7999 26.845C11.8897 26.845 11.0932 26.6467 10.4106 26.25C9.75067 25.8767 9.42072 25.2117 9.42072 24.255C9.42072 23.6483 9.56863 22.9717 9.86444 22.225C10.274 22.6917 10.6495 23.0183 10.9908 23.205C11.3549 23.3917 11.7418 23.485 12.1514 23.485C13.2891 23.485 14.1311 22.8317 14.6772 21.525C15.2461 20.2183 15.5305 18.7717 15.5305 17.185C15.5305 14.2217 14.4496 12.74 12.2879 12.74C11.6735 12.74 11.1501 12.775 10.7178 12.845L7.91886 26.25H3.00371L7.6458 3.99L12.6975 3.29L11.0932 11.06H11.298C12.1627 11.06 12.9705 10.78 13.7215 10.22C14.4724 9.63667 15.0754 8.91333 15.5305 8.05C15.9856 7.16333 16.2132 6.27667 16.2132 5.39C16.2132 4.31667 15.8377 3.41833 15.0868 2.695C14.3586 1.97167 13.2322 1.61 11.7076 1.61C10.3196 1.61 8.96561 1.93667 7.6458 2.59C6.32599 3.22 5.24511 4.17667 4.40316 5.46C3.58397 6.74333 3.17437 8.295 3.17437 10.115C3.17437 10.9783 3.25401 11.585 3.4133 11.935C3.57259 12.2617 3.65223 12.4483 3.65223 12.495C2.4462 12.495 1.53599 12.25 0.921592 11.76C0.307197 11.2467 0 10.4183 0 9.275C0 7.68833 0.580261 6.18333 1.74078 4.76C2.90131 3.33667 4.43729 2.19334 6.34874 1.33C8.26019 0.443334 10.274 0 12.3903 0C13.9832 0 15.3257 0.256667 16.418 0.770001C17.5102 1.28333 18.3181 1.96 18.8414 2.8C19.3876 3.64 19.6606 4.56167 19.6606 5.565C19.6606 6.63833 19.3648 7.67667 18.7732 8.68C18.1815 9.68333 17.3396 10.5 16.2473 11.13C17.6126 11.3867 18.6253 12.04 19.2852 13.09C19.9451 14.1167 20.275 15.3417 20.275 16.765C20.275 18.095 20.0247 19.5417 19.5241 21.105C19.0462 22.6683 18.2384 24.0217 17.1006 25.165C15.9856 26.285 14.552 26.845 12.7999 26.845Z" fill="white"/>
<path d="M26.4403 26.39C24.7564 26.39 23.4252 25.9467 22.4467 25.06C21.4683 24.1733 20.979 22.7733 20.979 20.86C20.979 19.2733 21.2976 17.5117 21.9347 15.575C22.5719 13.6383 23.5959 11.97 25.0067 10.57C26.4175 9.14667 28.1925 8.435 30.3315 8.435C33.2441 8.435 34.7005 10.3017 34.7005 14.035V14.07C34.7688 14.0933 34.8939 14.105 35.076 14.105C35.8269 14.105 36.6916 13.9067 37.6701 13.51C38.6485 13.09 39.536 12.5883 40.3324 12.005L40.6396 12.95C39.9797 13.6733 39.115 14.2917 38.0455 14.805C36.9988 15.295 35.8496 15.645 34.5981 15.855C34.416 17.9783 33.9496 19.8333 33.1986 21.42C32.4477 23.0067 31.4806 24.2317 30.2973 25.095C29.114 25.9583 27.8284 26.39 26.4403 26.39ZM27.8056 23.24C28.3517 23.24 28.8979 22.925 29.444 22.295C29.9901 21.6417 30.468 20.7667 30.8776 19.67C31.2872 18.55 31.583 17.3133 31.765 15.96C31.1507 15.82 30.8435 15.33 30.8435 14.49C30.8435 13.5333 31.1962 12.9033 31.9016 12.6C31.8561 11.83 31.7423 11.305 31.5602 11.025C31.3782 10.7217 31.0596 10.57 30.6045 10.57C29.8536 10.57 29.1254 11.13 28.42 12.25C27.7146 13.37 27.1457 14.7117 26.7134 16.275C26.281 17.8383 26.0648 19.215 26.0648 20.405C26.0648 21.525 26.19 22.2833 26.4403 22.68C26.6906 23.0533 27.1457 23.24 27.8056 23.24Z" fill="white"/>
<path d="M41.4402 26.39C39.7563 26.39 38.4251 25.9467 37.4466 25.06C36.4681 24.1733 35.9789 22.7733 35.9789 20.86C35.9789 19.2733 36.2975 17.5117 36.9346 15.575C37.5718 13.6383 38.5957 11.97 40.0066 10.57C41.4174 9.14667 43.1923 8.435 45.3313 8.435C48.244 8.435 49.7004 10.3017 49.7004 14.035V14.07C49.7686 14.0933 49.8938 14.105 50.0758 14.105C50.8267 14.105 51.6914 13.9067 52.6699 13.51C53.6484 13.09 54.5359 12.5883 55.3323 12.005L55.6395 12.95C54.9796 13.6733 54.1149 14.2917 53.0454 14.805C51.9986 15.295 50.8495 15.645 49.5979 15.855C49.4159 17.9783 48.9494 19.8333 48.1985 21.42C47.4476 23.0067 46.4805 24.2317 45.2972 25.095C44.1139 25.9583 42.8282 26.39 41.4402 26.39ZM42.8055 23.24C43.3516 23.24 43.8977 22.925 44.4439 22.295C44.99 21.6417 45.4679 20.7667 45.8775 19.67C46.287 18.55 46.5829 17.3133 46.7649 15.96C46.1505 15.82 45.8433 15.33 45.8433 14.49C45.8433 13.5333 46.196 12.9033 46.9014 12.6C46.8559 11.83 46.7422 11.305 46.5601 11.025C46.3781 10.7217 46.0595 10.57 45.6044 10.57C44.8535 10.57 44.1253 11.13 43.4199 12.25C42.7145 13.37 42.1456 14.7117 41.7132 16.275C41.2809 17.8383 41.0647 19.215 41.0647 20.405C41.0647 21.525 41.1898 22.2833 41.4402 22.68C41.6905 23.0533 42.1456 23.24 42.8055 23.24Z" fill="white"/>
<path d="M64.2906 26.46C62.8798 26.46 61.8103 26.1217 61.0821 25.445C60.3539 24.745 59.9899 23.7533 59.9899 22.47C59.9899 21.91 60.0581 21.3033 60.1947 20.65L60.4677 19.285C60.5587 18.8883 60.6043 18.4567 60.6043 17.99C60.6043 16.87 60.1947 16.31 59.3755 16.31C59.0114 16.31 58.6245 16.415 58.2149 16.625C57.8281 16.835 57.373 17.1617 56.8496 17.605L55.0747 26.25H50.1595L55.1088 2.45L60.1605 1.75L57.6005 14.07L64.1882 8.75H67.5674L60.7408 13.615C61.0821 13.5217 61.4576 13.475 61.8672 13.475C63.096 13.475 64.0289 13.86 64.6661 14.63C65.3032 15.4 65.6218 16.38 65.6218 17.57C65.6218 18.06 65.5763 18.5033 65.4853 18.9L65.1098 20.65C64.996 21.07 64.9391 21.4433 64.9391 21.77C64.9391 22.6333 65.3829 23.065 66.2703 23.065C66.953 23.065 67.4991 22.82 67.9087 22.33C68.3183 21.8167 68.7279 21.035 69.1375 19.985H70.5711C69.1603 24.3017 67.0668 26.46 64.2906 26.46Z" fill="white"/>
<path d="M74.4479 35C73.3556 35 72.4454 34.7083 71.7172 34.125C70.989 33.5417 70.625 32.7017 70.625 31.605C70.625 30.275 71.1483 29.2017 72.1951 28.385C73.2418 27.5917 74.573 26.9267 76.1886 26.39L76.5982 24.5C75.9383 25.2467 75.2671 25.76 74.5844 26.04C73.9017 26.32 73.2077 26.46 72.5023 26.46C71.41 26.46 70.5226 26.11 69.8399 25.41C69.18 24.71 68.85 23.66 68.85 22.26C68.85 21.6767 68.9411 20.9183 69.1231 19.985L71.4442 8.75H76.3593L73.9017 20.65C73.8335 20.93 73.7993 21.2217 73.7993 21.525C73.7993 22.5517 74.1407 23.065 74.8233 23.065C75.415 23.065 75.9383 22.8083 76.3934 22.295C76.8485 21.7583 77.2126 21.0583 77.4857 20.195L79.875 8.75H84.7902L81.411 24.99C82.5033 24.6167 83.3793 24.0567 84.0392 23.31C84.6991 22.5633 85.2567 21.455 85.7118 19.985H87.1453C86.531 22.0617 85.7004 23.59 84.6536 24.57C83.6069 25.5267 82.4236 26.18 81.1038 26.53L80.5918 29.05C80.1367 31.3133 79.3516 32.865 78.2366 33.705C77.1216 34.5683 75.8587 35 74.4479 35ZM73.6628 32.27C74.0496 32.27 74.4251 32.0017 74.7892 31.465C75.1533 30.9283 75.4377 30.1583 75.6425 29.155L75.8473 28.14C73.6173 28.98 72.5023 29.9717 72.5023 31.115C72.5023 31.4183 72.6047 31.6867 72.8095 31.92C73.0143 32.1533 73.2987 32.27 73.6628 32.27Z" fill="white"/>
<path d="M90.2626 26.46C88.7153 26.46 87.532 26.075 86.7128 25.305C85.8936 24.5117 85.484 23.4033 85.484 21.98C85.484 21.28 85.5637 20.615 85.723 19.985L89.3752 2.45L94.4269 1.75L92.7885 9.625C93.4256 9.22833 93.949 8.97167 94.3586 8.855C94.7682 8.715 95.1778 8.645 95.5874 8.645C98.2725 8.645 99.6151 10.64 99.6151 14.63C99.6151 16.24 99.3079 17.9667 98.6935 19.81C98.1019 21.63 97.1006 23.1933 95.6898 24.5C94.3017 25.8067 92.4927 26.46 90.2626 26.46ZM92.1741 23.065C92.8795 23.065 93.5394 22.6217 94.1538 21.735C94.7682 20.825 95.2574 19.705 95.6215 18.375C95.9856 17.0217 96.1677 15.7267 96.1677 14.49C96.1677 13.5567 96.0084 12.7633 95.6898 12.11C95.3712 11.4567 94.9275 11.13 94.3586 11.13C94.0173 11.13 93.6304 11.1883 93.1981 11.305C92.7885 11.3983 92.5041 11.55 92.3448 11.76L90.4674 20.65C90.3992 20.93 90.3651 21.1983 90.3651 21.455C90.3651 22.5283 90.9681 23.065 92.1741 23.065Z" fill="white"/>
<path d="M105.873 26.39C104.189 26.39 102.858 25.9467 101.879 25.06C100.901 24.1733 100.412 22.7733 100.412 20.86C100.412 19.2733 100.73 17.5117 101.367 15.575C102.005 13.6383 103.028 11.97 104.439 10.57C105.85 9.14667 107.625 8.435 109.764 8.435C112.677 8.435 114.133 10.3017 114.133 14.035V14.07C114.201 14.0933 114.327 14.105 114.509 14.105C115.259 14.105 116.124 13.9067 117.103 13.51C118.081 13.09 118.969 12.5883 119.765 12.005L120.072 12.95C119.412 13.6733 118.548 14.2917 117.478 14.805C116.431 15.295 115.282 15.645 114.031 15.855C113.849 17.9783 113.382 19.8333 112.631 21.42C111.88 23.0067 110.913 24.2317 109.73 25.095C108.547 25.9583 107.261 26.39 105.873 26.39ZM107.238 23.24C107.784 23.24 108.33 22.925 108.877 22.295C109.423 21.6417 109.901 20.7667 110.31 19.67C110.72 18.55 111.016 17.3133 111.198 15.96C110.583 15.82 110.276 15.33 110.276 14.49C110.276 13.5333 110.629 12.9033 111.334 12.6C111.289 11.83 111.175 11.305 110.993 11.025C110.811 10.7217 110.492 10.57 110.037 10.57C109.286 10.57 108.558 11.13 107.853 12.25C107.147 13.37 106.578 14.7117 106.146 16.275C105.714 17.8383 105.497 19.215 105.497 20.405C105.497 21.525 105.623 22.2833 105.873 22.68C106.123 23.0533 106.578 23.24 107.238 23.24Z" fill="white"/>
<path d="M120.873 26.39C119.189 26.39 117.858 25.9467 116.879 25.06C115.901 24.1733 115.411 22.7733 115.411 20.86C115.411 19.2733 115.73 17.5117 116.367 15.575C117.004 13.6383 118.028 11.97 119.439 10.57C120.85 9.14667 122.625 8.435 124.764 8.435C127.677 8.435 129.133 10.3017 129.133 14.035V14.07C129.201 14.0933 129.326 14.105 129.508 14.105C130.259 14.105 131.124 13.9067 132.103 13.51C133.081 13.09 133.968 12.5883 134.765 12.005L135.072 12.95C134.412 13.6733 133.548 14.2917 132.478 14.805C131.431 15.295 130.282 15.645 129.031 15.855C128.849 17.9783 128.382 19.8333 127.631 21.42C126.88 23.0067 125.913 24.2317 124.73 25.095C123.547 25.9583 122.261 26.39 120.873 26.39ZM122.238 23.24C122.784 23.24 123.33 22.925 123.876 22.295C124.423 21.6417 124.9 20.7667 125.31 19.67C125.72 18.55 126.015 17.3133 126.198 15.96C125.583 15.82 125.276 15.33 125.276 14.49C125.276 13.5333 125.629 12.9033 126.334 12.6C126.289 11.83 126.175 11.305 125.993 11.025C125.811 10.7217 125.492 10.57 125.037 10.57C124.286 10.57 123.558 11.13 122.852 12.25C122.147 13.37 121.578 14.7117 121.146 16.275C120.713 17.8383 120.497 19.215 120.497 20.405C120.497 21.525 120.622 22.2833 120.873 22.68C121.123 23.0533 121.578 23.24 122.238 23.24Z" fill="white"/>
<path d="M143.723 26.46C142.312 26.46 141.243 26.1217 140.515 25.445C139.787 24.745 139.422 23.7533 139.422 22.47C139.422 21.91 139.491 21.3033 139.627 20.65L139.9 19.285C139.991 18.8883 140.037 18.4567 140.037 17.99C140.037 16.87 139.627 16.31 138.808 16.31C138.444 16.31 138.057 16.415 137.648 16.625C137.261 16.835 136.806 17.1617 136.282 17.605L134.507 26.25H129.592L134.541 2.45L139.593 1.75L137.033 14.07L143.621 8.75H147L140.173 13.615C140.515 13.5217 140.89 13.475 141.3 13.475C142.529 13.475 143.462 13.86 144.099 14.63C144.736 15.4 145.054 16.38 145.054 17.57C145.054 18.06 145.009 18.5033 144.918 18.9L144.542 20.65C144.429 21.07 144.372 21.4433 144.372 21.77C144.372 22.6333 144.815 23.065 145.703 23.065C146.204 23.065 146.522 23.03 146.659 22.96C146.795 22.89 146.875 22.855 146.898 22.855C146.852 23.625 146.636 24.2783 146.249 24.815C145.885 25.3517 145.453 25.76 144.952 26.04C144.474 26.32 144.065 26.46 143.723 26.46Z" fill="white"/>
</svg>
