<svg width="36" height="36" viewBox="0 0 36 36" fill="none" xmlns="http://www.w3.org/2000/svg">
<path d="M17.8747 0C8.01864 0 0 8.01864 0 17.8747C0 27.7301 8.01864 35.7494 17.8747 35.7494C27.7301 35.7494 35.7494 27.7301 35.7494 17.8747C35.7494 8.01864 27.7315 0 17.8747 0ZM22.32 18.504H19.4119C19.4119 23.1502 19.4119 28.8691 19.4119 28.8691H15.1027C15.1027 28.8691 15.1027 23.2056 15.1027 18.504H13.0543V14.8406H15.1027V12.4711C15.1027 10.7741 15.9091 8.12232 19.4515 8.12232L22.6447 8.13456V11.6906C22.6447 11.6906 20.7043 11.6906 20.327 11.6906C19.9498 11.6906 19.4134 11.8793 19.4134 12.6886V14.8414H22.6966L22.32 18.504Z" fill="#F5F8FA"/>
</svg>
