<svg width="36" height="36" viewBox="0 0 36 36" fill="none" xmlns="http://www.w3.org/2000/svg">
<path d="M21.4453 18C21.4453 19.9028 19.9028 21.4453 18 21.4453C16.0972 21.4453 14.5547 19.9028 14.5547 18C14.5547 16.0972 16.0972 14.5547 18 14.5547C19.9028 14.5547 21.4453 16.0972 21.4453 18ZM26.0574 11.9042C26.1991 12.2684 26.3675 12.8158 26.4133 13.8235C26.463 14.9134 26.4735 15.2402 26.4735 18.0003C26.4735 20.76 26.463 21.0869 26.4133 22.177C26.3672 23.1847 26.1988 23.7318 26.0574 24.096C25.7097 24.9975 24.9972 25.7099 24.0958 26.0576C23.7316 26.1994 23.1842 26.3677 22.1765 26.4136C21.0869 26.4633 20.76 26.4738 17.9997 26.4738C15.2397 26.4738 14.9131 26.4633 13.8233 26.4136C12.8156 26.3677 12.2682 26.1994 11.904 26.0576C11.4549 25.892 11.049 25.6278 10.7155 25.2845C10.3722 24.951 10.1082 24.5451 9.94235 24.096C9.8009 23.7318 9.63254 23.1847 9.58667 22.177C9.53696 21.0869 9.52625 20.76 9.52625 18.0003C9.52625 15.2402 9.53696 14.9134 9.58667 13.8235C9.63254 12.8158 9.8009 12.2684 9.94235 11.9042C10.1082 11.4552 10.3725 11.0492 10.7158 10.7158C11.049 10.3725 11.4552 10.1082 11.9042 9.94263C12.2682 9.80118 12.8156 9.63281 13.8233 9.58667C14.9131 9.53696 15.24 9.52652 18 9.52652C20.7598 9.52652 21.0866 9.53723 22.1767 9.58694C23.1844 9.63281 23.7316 9.80118 24.0958 9.94263C24.5448 10.1082 24.9508 10.3725 25.2842 10.7158C25.6275 11.0492 25.8918 11.4554 26.0574 11.9042ZM18 23.3075C20.9312 23.3075 23.3075 20.9314 23.3075 18C23.3075 15.0686 20.9312 12.6925 18 12.6925C15.0686 12.6925 12.6922 15.0686 12.6922 18C12.6922 20.9314 15.0686 23.3075 18 23.3075ZM23.5173 13.723C24.2023 13.723 24.7574 13.1677 24.7577 12.4827C24.7577 11.7977 24.2023 11.2423 23.5173 11.2423C22.8323 11.2423 22.277 11.7977 22.277 12.4827C22.277 13.1677 22.8323 13.723 23.5173 13.723ZM18 0C27.9396 0 36 8.06039 36 18C36 27.9396 27.9396 36 18 36C8.06039 36 0 27.9396 0 18C0 8.06039 8.06039 0 18 0ZM28.2736 22.2613C28.3241 21.1591 28.3359 20.807 28.3359 18C28.3359 15.193 28.3241 14.8409 28.2739 13.7387C28.2236 12.6384 28.0489 11.8872 27.7932 11.2297C27.5339 10.54 27.1269 9.91544 26.6012 9.39908C26.0848 8.87311 25.46 8.46606 24.7703 8.20651C24.1128 7.95135 23.3616 7.77667 22.2613 7.72668C21.1591 7.67615 20.807 7.66406 18 7.66406C15.193 7.66406 14.8409 7.67615 13.7387 7.72641C12.6384 7.77667 11.8872 7.95135 11.2297 8.20679C10.54 8.46634 9.91516 8.87311 9.39908 9.39908C8.87311 9.91516 8.46606 10.54 8.20651 11.2297C7.95108 11.8872 7.7764 12.6384 7.72641 13.7387C7.67587 14.8409 7.66406 15.193 7.66406 18C7.66406 20.807 7.67587 21.1591 7.72668 22.2616C7.77667 23.3616 7.95163 24.1131 8.20706 24.7703C8.46661 25.46 8.87338 26.0848 9.39908 26.6009C9.91544 27.1269 10.54 27.5337 11.2299 27.7932C11.8872 28.0486 12.6387 28.2233 13.7387 28.2736C14.8412 28.3239 15.193 28.3359 18.0003 28.3359C20.8073 28.3359 21.1594 28.3239 22.2616 28.2736C23.3616 28.2233 24.1131 28.0486 24.7703 27.7932C26.1587 27.2563 27.2563 26.1587 27.7932 24.7703C28.0486 24.1128 28.2236 23.3616 28.2736 22.2613Z" fill="#F5F8FA"/>
</svg>
