<svg width="36" height="36" viewBox="0 0 36 36" fill="none" xmlns="http://www.w3.org/2000/svg">
<path d="M17.8747 0C8.01864 0 0 8.01864 0 17.8747C0 27.7301 8.01864 35.7494 17.8747 35.7494C27.7301 35.7494 35.7494 27.7301 35.7494 17.8747C35.7494 8.01864 27.7315 0 17.8747 0ZM25.8487 13.7837C25.8566 13.9608 25.861 14.1394 25.861 14.3179C25.861 19.7546 21.7238 26.0215 14.1545 26.0215C11.831 26.0215 9.66816 25.3426 7.848 24.1747C8.16984 24.2129 8.49744 24.2323 8.82936 24.2323C10.7575 24.2323 12.5309 23.5742 13.9392 22.4712C12.1392 22.4381 10.6193 21.2486 10.0958 19.6135C10.3464 19.661 10.6049 19.6877 10.8691 19.6877C11.2442 19.6877 11.6086 19.6387 11.9534 19.5444C10.0714 19.1671 8.65368 17.5046 8.65368 15.5102C8.65368 15.493 8.65368 15.475 8.6544 15.4584C9.2088 15.7658 9.84312 15.9516 10.517 15.9725C9.414 15.2359 8.68752 13.9759 8.68752 12.5489C8.68752 11.7943 8.88984 11.0873 9.24408 10.4796C11.2723 12.9694 14.305 14.6066 17.7235 14.7794C17.653 14.4778 17.6177 14.1646 17.6177 13.8413C17.6177 11.5697 19.4594 9.7272 21.731 9.7272C22.9147 9.7272 23.9825 10.2269 24.7342 11.0261C25.6723 10.8418 26.5507 10.5005 27.3478 10.0274C27.0382 10.9886 26.388 11.7943 25.5362 12.3041C26.3693 12.2047 27.1642 11.9844 27.8993 11.6568C27.3506 12.4805 26.653 13.2055 25.8487 13.7837Z" fill="#F5F8FA"/>
</svg>
